<svg xmlns="http://www.w3.org/2000/svg" width="128" height="128">
<path stroke="hsl(0 0% 100%)" stroke-width="2" fill="none" d="
  M 18 20
  v -8
  a 6 6 0 1 0 -6 6
  h 8
  a 6 6 0 0 0 6 -6
  v -10
  h 76
  v 10
  a 6 6 0 0 0 6 6
  h 8
  a 6 6 0 1 0 -6 -6
  v 8
  a 6 6 0 0 0 6 6
  h 10
  v 76
  h -10
  a 6 6 0 0 0 -6 6
  v 8
  a 6 6 0 1 0 6 -6
  h -8
  a 6 6 0 0 0 -6 6
  v 10
  h -76
  v -10
  a 6 6 0 0 0 -6 -6
  h -8
  a 6 6 0 1 0 6 6
  v -8
  a 6 6 0 0 0 -6 -6
  h -10
  v -76
  h 10
  a 6 6 0 0 0 6 -6
" />
<path stroke="hsl(0 0% 100%)" stroke-width="2" fill="none" d="
  M 22 20
  v -8
  a 10 10 0 1 0 -10 10
  h 8
  a 10 10 0 0 0 10 -10
  v -6
  h 68
  v 6
  a 10 10 0 0 0 10 10
  h 8
  a 10 10 0 1 0 -10 -10
  v 8
  a 10 10 0 0 0 10 10
  h 6
  v 68
  h -6
  a 10 10 0 0 0 -10 10
  v 8
  a 10 10 0 1 0 10 -10
  h -8
  a 10 10 0 0 0 -10 10
  v 6
  h -68
  v -6
  a 10 10 0 0 0 -10 -10
  h -8
  a 10 10 0 1 0 10 10
  v -8
  a 10 10 0 0 0 -10 -10
  h -6
  v -68
  h 6
  a 10 10 0 0 0 10 -10
" />
</svg>