<svg xmlns="http://www.w3.org/2000/svg" width="128" height="32">
<path stroke="hsl(50 80% 50%)" stroke-width="4" fill="none" d="
  M 48 6
  Q 21 6 13 12
  A 5 5 0 0 0 16 21
  A 5 5 0 0 0 16 11
  A 5 5 0 0 0 13 20
  Q 21 26 48 26
  H 80
  Q 107 26 115 20
  A 5 5 0 0 0 115 12
  Q 107 6 80 6
" />
<path fill="hsl(50 80% 50%)" d="
  M 94 4
  Q 120 4 120 16
  T 94 28
  C 94 20 100 16 104 16
  S 109 19 112 19
  A 3 3 0 0 0 115 16
  C 115 12 108 12 104 12
  S 94 12 94 4
" />
<path stroke="hsl(240 20% 18%)" stroke-width="0.5" fill="none" d="
  M 48 0
  v 12
  M 80 0
  v 12
" />
</svg>